<svg xmlns="http://www.w3.org/2000/svg" xmlns:v="https://vecta.io/nano" viewBox="-3 -3 86 86"><g id="deeditor_bgCarrier" stroke-width="0">
    <rect id="dee_c_e" x="-3" y="-3" width="86" height="86" rx="0" fill="#383838" strokewidth="0"/>
  </g><path d="M16.9 5.8a148.6 148.6 0 0 0 7.3 13.5l.5.8-1 .6-1 .8c-.2.1-.7.5-1.3.7a9 9 0 0 0-2.1 1.6L18.2 25 17 24c-3.6-3.5-5-4.7-5.5-4.7-.6 0-.2.9 4 8l1 2.4c0 .2-.2.7-.6 1.2-1.2 1.5-1.3 1.9-1.2 3.9 0 1.4 0 2-.3 2.8a13 13 0 0 1-3 4.7c-1.4 1.5-1.6 2-1.2 3.1l.5 1.9c.7 3.4 1.8 4.3 5 4.2h2.1c1.7.3 3.8-.9 3.8-2 0-.4 0-.9.2-1.2.3-.8 1.6-2.1 2.8-2.9 1-.6 4.4-2.1 4.6-2l-.1 1.3-.3 2c-.1 1.1-.4 1.6-1.7 2.5l-1.3 1-1.4 1a14 14 0 0 0-2 1.6 10.2 10.2 0 0 0-2.5 6.8c0 1.2 0 1.2.4 1.2l.5.1.4 1.8a16 16 0 0 0 2 6.2l-.6.1c-.3 0-.8 0-1 .2h-.3l.3.2c.4.2 6 .2 6.7 0 1-.2.7-.4-.3-.4h-1l.3-.5c.4-.7.5-2 0-2.8a3 3 0 0 0-.9-1.1c-.5-.5-.7-.6-1.3-.6s-.8 0-1-.4c-.5-.7-.7-1.4-.7-2.7 0-1 .4-2.8.6-2.6l.6 2.7c.1.8.2 1 1.2 2a9 9 0 0 0 3 2.2c.2 0 .4 0 .7-.3.4-.4.9-2.1 1-3.6.1-.8.1-1-.2-1.3-.4-.6-1.1-.4-2.6.7l-1.3 1c-.5 0-1.5-4-1.7-6.3 0-2.3.2-3 1.5-4.3a10 10 0 0 1 1.8-1.4c1.7-1 2.9-1.8 4-3.2s2.1-2.3 3.9-3.2l.9-.6-1 .2a9.4 9.4 0 0 0-3.5 2 3 3 0 0 1-.7.6l.4-1.2c.3-.7.8-2.2 1.1-3.5.5-2 .7-2.5.6-3.7v-1.3l-.1.9a12.7 12.7 0 0 1-.3 1.4l-.1.5-.2-.8a17.3 17.3 0 0 0-.3-1.8c-.3-.9-.3-1-.4-.5 0 .3-.2.4-.2.3-.1-.1-.1.3-.1.8a8 8 0 0 1-.8 3.6c-.8 1.2-1.7 1.8-4.9 3.1-1.3.6-3 1.7-4 2.6l-.7.8V46c0-.7.3-1.4.8-2 .3-.3.3-.3 0-.2l-.7.6c-.8.9-1 1.5-1 3.3-.2 2-.3 2.2-1.5 2.7-1 .5-1.2.4-.3-.3.8-.6 1.2-1.5 1-2.3v-.4l-.4.6c-.4.7-1.4 1.7-2.2 2.1-1.4.7-3.7.7-4.5-.1-.7-.7-1.3-2-1.3-3 0-.6 0-1.1-.3-1.6-.4-1-.4-1.3.6-2.4a17 17 0 0 0 2.8-3.9 7 7 0 0 0 1-4.3c-.2-1.7 0-2.2 1.1-3.5l.7-.8.2.5c.7 1.8 2.9.8 3.4-1.4 0-.3.3-.7.7-1l.6-.4.3.9c.7 1.7 1.8 2.4 4.5 3.2a4 4 0 0 1 1.2.5h.4c-.2.3 2 .2 2.5 0l1-.6c.2-.2.2-.2-.2 0-.7.3-2 .2-2.8-.3-1-.6-2.3-2-2.5-3 0-.3 0-.3 2-.3s2 0 3 .5c.6.3 1.8 1 2.8 1.8 3 2 4.5 2.6 7 2.6h1.4l.7.7c1 1 2.8 2.3 4 2.8s2.6.7 2.8.5c0-.1 0-.2-.2-.2a3 3 0 0 1-1.8-.9c-.6-.5-.5-.7.1-.7L51 35c1.7-.6 2-.7 3.2-.6 1.1 0 1.5.2 2.4.6 2.3 1 3.9 2.6 5 5 1.6 3.3 1.6 5.6.1 9.7-1 3-1 3.1-1.2 5.2v2L59.2 58l-1.9 2.5a19 19 0 0 0-1.8 4.7c0 .4 0 .3-.4-.1-.3-.3-.8-.7-1.2-.8l-.7-.5 1.1-2.2c1.7-3.4 2-5.5 1.4-8.5a9 9 0 0 1 0-4.7c.3-1.2 1.2-3 1.8-4l.4-.5-.4.2c-.7.4-2 1.9-2.5 3-.7 1.3-1 2.5-.9 3.8l.1 1-.8-.5c-1.3-.7-1.4-.9-1.1-2.2l.2-1.1-.5.7c-.8 1.3-2.6 2.4-5 3a18 18 0 0 1-6.2.1c-1-.2-3-.8-3.2-1l.4-.6c1-1 1.2-1.7 1.2-3.4s0-1.7-.5 0c-.3 1.2-1 2.3-2 3s-1.6 1-4.3 2.2a11 11 0 0 0-4.6 2.8c-1.1 1.2-1.5 2.3-1.2 3.7.2 1.1.4 1.4.7 1.2l1-.4.9-.2.2-1.2c0-.6.3-1.5.6-2a8.6 8.6 0 0 1 3.7-3.3c2.3-1 2.2-1 3.9-.4a15.4 15.4 0 0 0 8.8 1l.7-.1.9.6c2.5 2 3.5 3.3 3.5 4.7 0 1-.4 1.9-1.7 4l-1.6 2.6-1.1 1.4a10.1 10.1 0 0 0-1.3 1.5l-.4.7h-1c-1.1 0-1.1 0-.7.2 1.3.5 1.6.5 7.5.5l6.1-.3c.3-.2.3-.2-.2-.3l-1.3-.1H55l.4-1.1a48.3 48.3 0 0 0 .8-2.5c.8-3.2 2.5-5.8 4.4-7 1.1-.8 1.2-1.1 1-2.6-.3-1.5-.1-2.4.9-5.1.9-2.3 1.2-3.5 1.3-5.2L64 44h.6a5.9 5.9 0 0 0 1.3-.2c.6-.2 2-1 2-1.3l-.7-.1h-.7l.6-.2a5 5 0 0 0 2.1-1.3c.4-.4.4-.4 0-.3-.1 0-.8 0-1.5-.2a5.2 5.2 0 0 0-3 0c-.3 0-.2-.1 0-.4.8-.6 1-.7 2.3-.8 2-.2 3.2-.6 4-1.5 1.5-1.6 1.7-4.6.5-7-.4-.8-.4-.8-.2-1.6.3-.8.3-2 0-2.7-.3-.8-.4-.8-.4.1 0 .6 0 1-.2 1.3-.2.4-.2.4-.4-.7a8.6 8.6 0 0 0-4.5-5.8l-1.2-.6.8.9a7 7 0 0 1 2 5.5c-.1 1.9-.9 3-3.4 4.7-2 1.3-2.8 2.2-3.3 3.3l-.4 1-.7-.7a8.8 8.8 0 0 0-5.8-2.1c-1.2 0-1.6 0-3 .6-1.4.5-1.6.6-3.1.6-1 0-1.8 0-2-.2-.3-.2-.3-.2 2-.5 1.5-.2 2.1-.5 2.8-1.5a6.3 6.3 0 0 0 1.1-4V27l.7-.1a5.8 5.8 0 0 0 3.4-2.5c.6-1 .5-1.2-.2-.6a6 6 0 0 1-4.6 1.6l-.8-.1.4-.5c.6-.6.7-1.4.4-2.3l-.2-.6a50 50 0 0 0 2.2.6l.7.1c.3.2-.5.5-1.5.5-.5 0-.7 0-.5.2.3.2 2 .2 2.5 0a3 3 0 0 0 1.5-1.6c.3-.8.2-2.1-.2-3l-.5-.8v1.2c0 1 0 1.3-.3 1.6-.6 1-2.1 1.1-4 .5-1.7-.5-1.8-.5-1.2 0 .8 1 1 2.3.2 3.4a2 2 0 0 0-.4.6l.8.4c.6.3.7.3.3.3-1 0-3.8-1.2-5.5-2.4l-1-.6 1.4-.1c2.4-.2 2.5-.4.4-.5l-1.9-.1 1.3-.8a47.7 47.7 0 0 1 2.5-1.4c1-.6 1.3-.6 2-.6.5 0 1.2.3 1.7.6l1 .4-.4-.4a7.4 7.4 0 0 0-2.5-1.8c-.6-.2-.7-.3-.5-.7a7 7 0 0 0 0-2.5c-.2-.2-.2-.2-.2.1 0 .5-.6 1.5-1 1.9l-.4.3-.7-.5a10.3 10.3 0 0 0-6-1.9 7 7 0 0 0-4.2.7l-1 .4h.6c.4.2.1.2-.9.2l-1.8.1c-.9.3-.1-1.2 1-2l.4-.3-.7.2c-.9.2-1.9 1.3-1.9 2 0 .3-.2.3-.8.5l-2 .7c-1.6.7-2.1.7-2.3.1a4 4 0 0 0-.7-.9l-.7-1a1.4 1.4 0 0 0-.7-.8c-.3-.1-.6-.5-.8-.7-.1-.3-.4-.5-.5-.6-.2 0-.4-.3-.6-.6l-.6-.8a3 3 0 0 1-.8-.9l-.4-.6-.5-.5a56 56 0 0 0-3.7-4.3zm3.1 4.4c.3.4 0 .5-.2 0-.2-.2-.2-.4-.1-.4l.3.4zm1.4 2.2c0 .2-.3 0-.5-.4-.4-.7-.3-1 .1-.4l.4.8zm1 .6l.1.9c0 .3 0 .3-.3.2-.3-.3-.5-.7-.4-1.1.1-.5.3-.4.5 0zm1.2 1.9c.3.3.4.8.2 1.2h-.3c-.4-.5-.5-1-.5-1.3.2-.3.2-.3.6 0zm17.1.8a5.6 5.6 0 0 1 2.7 2.6l-1.3.1c-1.4 0-2.9-.3-3.6-.8-.3-.2-.3-.3 0-.6l.5-.3c.1 0 .2 0 .1-.1l-.8-.2c-1 0-1-.2-.3-.6.6-.4 2-.4 2.7-.1zm2.4.4c1.3.6 2.7 1.9 2.3 2l-.7.2c-.4.1-.5 0-.6-.2A7.5 7.5 0 0 0 42 16c-1-.7-.3-.6 1.2.2zm-17.8.8c.2.4.2.6 0 .9l-.2.4-.3-.4c-.5-.7-.6-1.2-.4-1.7l.2-.4.2.4.5.8zm11.3.4c.4.1 1 .5 1.6.9s1.6.8 2.3 1c1.5.5 3.8.4 5.7-.2l1.5-.4c.3.1-1.5 1.4-2.9 2.1-1.8 1-2.3 1-3 .9l-.5-.2.5.5.8.5c.6 0 1 1.7.8 3-.1.9-.3 1-1 .6-.6-.3-1.1-1-1.7-2.6-.9-2.4-2-4-3.2-4.7-.5-.3-.4-.2.3.6 1 1 1.9 2.5 2.3 4l.4 1.3c0 .1.1.2 0 .2l-.8-1.6c-1.2-2.5-2.5-3.7-4.7-4.4a7.1 7.1 0 0 0-4.7.1c-.7.4-1 .4-1 .2 0-.1.2-.4.6-.7 1.9-1.3 5-1.8 6.7-1.1zm-10.1 2.5l-.1.8-.6-.7c-.6-.9-.6-1-.2-1.6l.4-.5.3.5c.2.5.2.8.2 1.5zm1.8-.6c.7.8 1.3 2 1.7 3.5.1.6.5 1.5.7 2l.3 1c-.1.1-.5.1-.9-.1a1.9 1.9 0 0 0-.6-.2L29 25c-1-1-2-1.2-2.8-.5l-.3.4c1-.7 1.9-.5 3 .5 1 .8 1.7 1 2.8.6l.8-.2-.5.5c-.7.7-1.6 1-2.8 1-1.8 0-2.8-.6-2.6-1.4 0-.4 0-.4-.2-.2-.3.2-.3.3 0 .7 0 .2.4.6.7.7.6.5.5.5-.1.1-.3-.1-.7-.6-1-1.1l-.6-1c-.2-.2-.2-.8 0-1.3.4-.6.8-1 1.5-1l.5-.2V21c0-1.8.1-2.3.4-2.3l.6.6zm6.4.5c1.5.4 2.6 1.5 4 3.8 1.8 2.8 2.9 3.6 5 3.8H45l-.4.4-1.2.7c-.8.4-1 .4-2.4.4-1.2 0-1.6 0-2.2-.3-1.1-.6-1.2-.6-.7-.2l.4.3-.5-.2a5.1 5.1 0 0 1-.9-.7l-.1-.1.2.3-.4-.3a34.5 34.5 0 0 1-1.3-1.2c-1-.8-2.2-1.6-2.8-1.6a1 1 0 0 1-.5 0 9.6 9.6 0 0 1-1.1-2.4l.2.3c.2.3.4.4 1.2.5 1.3 0 2.2.5 4 2 1.6 1.5 2.1 1.9 3.3 2.2 1.2.4 1.6.3.8-.1l-2.3-1.8-2.2-2c-.8-.4-.7-.5.1-.1.7.4.7.1 0-.4a7 7 0 0 0-4-1.1L31 22l-.4-.8-.5-1 .5-.3c1.3-.6 2.8-.7 4.2-.2zm-18.4 4.9c.1.3-.3.9-.6.9L12.8 21a19.3 19.3 0 0 1 3.5 3.5zm10.3-3.3h-.2l-.2-.2c0-.1.1-.1.2 0a.3.3 0 0 1 .2.2zm-1.1.3c0 .1-.3.4-.7.5-1 .5-1.7 1.2-2 1.9-.4.6-.6.7-.7.3-.3-.8.6-1.8 2-2.5 1-.5 1.4-.6 1.4-.2zm-4 2.4v1l-.6.2a7 7 0 0 0-1.2.4c-.8.5-1 .2-.4-.5.3-.4 2-2 2.2-2v1zm3.4.2c0 .5-.2 1-.3 1.1-.2.2-.2.3.2.7s.6.7.7 1.6c.2 1.3.5 2.2 1.3 3l.6.7-.5-.1a5 5 0 0 1-3.5-3.2 4 4 0 0 1 0-2.7c.2-.7 1.2-2 1.5-2v.9zM47.7 26l1 .6c0 .1-1.4.4-2.2.4H46v-1.8l-.3.7c-.4.8-.7 1-1.3.8-.4-.1-.4-.2-.2-.8.2-.3.3-1 .3-1.5v-.8l1.1 1 2.2 1.4zm-27.8 2.3c.3.5.3 1 0 1.5s-.8.7-1.1.5a25 25 0 0 1-2.9-4.3l.5-.6.4-.6 1.4 1.6 1.7 1.9zm49-2.3c.1.5.2 1 .1 2 0 1.4-.5 2.5-1.6 3.7-1 1-.8 1 .2.1.9-.7 1.4-1.6 1.9-2.8l.3-1v1.1a6 6 0 0 1-1.2 4.7l-2 1.7-2.4 2c-1.3 1.2-1.2.7.2-.8 1.6-1.7 1.7-1.8.4-.8-.7.5-1.3 1-1.4.9l-.4.3-.3.3a25 25 0 0 1 1.7-3.3l.5-.7-.6.5c-1.1 1-2.3 2.6-2.3 3.2 0 .4-.2.3-.5-.3-.3-.7-.3-1 .1-1.7s1.2-1.4 3-2.4c2.4-1.4 3.3-2.4 3.8-4.1.2-1 .2-2.5 0-3.2-.1-.2-.1-.3 0-.2l.4.8zm-46.7.4c0 .7-.1 1-.5 1.3-.5.4-1 .5-1 .3l-.5-.8c-.8-.9-.7-1 .7-1.4 1.4-.5 1.4-.5 1.3.6zm11.5-.2l2 1.7c2.2 2 3.6 2.9 4.7 2.9h.5l-.5-.3c-.7-.4-.7-.5 0-.3h1.3l.7-.2h-1.9l1.1-.2 1.1-.2.9.5a8.3 8.3 0 0 0 2.9 1l.6.2-.6.2a6 6 0 0 1-2.8 0c-.2 0 0 0 .3.2l.6.3-1 .1c-1.6.2-3.6.2-4.6-.1-1.3-.4-2.2-1-4.2-2.3L32 28.1l-1-.4.5-.4a3 3 0 0 0 1-.9c.5-.5.6-.6 1.2-.2zm15.7 1.2c-.5.6-1.7 1-2.9 1.1a7.6 7.6 0 0 0-2.2.6l.8-.9c.8-.9.8-.9 1.8-.9a9.8 9.8 0 0 0 1.9-.2l.9-.1-.3.4zm.9 1.6c-.3 1-1 1.3-2.5 1.3a4 4 0 0 1-2-.4l-.9-.4.4-.3c.2-.2.6-.3 1.2-.3 1 0 2.6-.5 3.3-1l.4-.2.1.4v1zM71 31.6c0 .9-.4 2-1 2.4-.5.4-.5.4-.1.3.2 0 .6-.3.8-.5l.5-.4v1.1c-.2 1.5-.7 2.7-1.7 3.3-.7.5-2.1 1-5.2 1.7-.3 0 0-.2.7-.9 1.2-1 1.4-1.3.7-.8l-2.5 1.3c-.1-.1 1.9-2 3.7-3.3 2.6-2 3.4-3.1 3.7-4.6.1-.7.4-.5.4.4zm-21.7 0c-.4.5-1 .9-2 1.4s-1.7.6-2.2.4-.5-.2 1-.7c1-.3 2-.8 2.4-1 1-.7 1.2-.7.8-.1zm17.8 9.3l.4.1-.5.1c-.8.2-3.4.4-3.3.2a7 7 0 0 1 3.4-.4zm-1.7 2.2c.5 0 .5 0 .1.2l-1 .1c-.6 0-.7 0-.7-.2s.1-.2.6-.2l1 .1zm-41.3 9.6c-.3.6-.4 1.2-.4 2.5 0 1.5 0 1.7-.5 2.6-1 2.1-1 4.6.4 6.2.4.3.7.5 1 .5.2 0 .5 0 .6.2.3.1 0 .7-1 1.6-.6.6-.7.6-.9.3-.4-.5-1-1.8-1.3-3.6-.5-2.2-.6-2.5-1.2-2.8-.4-.2-.5-.2-.4-1.1.4-2.8 1-4.4 2.6-6l1.3-1.2-.2.8zm29.9 0c.7.7 1 1.3 1 2.5s-.5 2.3-1.6 3.6c-.5.5-.8 1-.7 1l1.5-.7c.2-.2.2-.2 0 .4-.3 1-.6 1.5-1.7 2.8-.6.7-1.2 1.7-1.5 2.2l-.6 1-1-.5c-.2 0 .5-1.2 1.5-2.8 1.2-1.8 1.5-2.4 1.6-3.3.2-1.5-.4-3-1.8-4.6-.3-.4-.6-.8-.5-.9l1-.6c1-.6 2-.6 2.8 0zm-24 2a7 7 0 0 0-1.4 3.2c-.2 1-.2 1-.6 1.2-.6.1-.8-.2-.7-1.2 0-1 .7-2 2-3l1-.8-.4.5zm-1 7c.2 1 0 2.2-.3 2.2l-1.1-.9-1-1 1-.6c.5-.4 1-.8 1.1-.7l.3 1zm24.7 3.2c.9.5 1.3 1.8.8 2.3a6 6 0 0 1-3 1.2c-.7 0-.7 0-.7-.4s.5-1.1 1.4-2.2c.5-.6.4-.6-.3 0-.8.6-.8.4 0-.4.6-.8 1-.9 1.8-.5zm-27.3.8a3 3 0 0 1-.2 2.3c-.2.3-.3.4-.7.4-.5 0-1.7-.6-1.7-.9l1-1.1c.6-.6 1-1.2 1-1.3 0-.3.4.1.6.6zm21.8 1.8c-.6 1-.6 1-1.3 1l-.7.1.7-.7c.7-.7 1.6-1.5 1.7-1.4l-.5 1zm0 0" fill="#e6e6e6"/><path d="M34.1 18a37.2 37.2 0 0 1 1.4.3h.7c.1 0-1.6-.5-2.2-.5h-.6Zm-6.5 2.9v1.7l.8.8c.5.5.9 1 1 1.3 0 .7.3.7.3.1a2 2 0 0 0-.5-1.2c-.4-.5-.6-1-.7-1.8l-.6-1.9-.4-.8Zm.6 1.2v-.5a1.6 1.6 0 0 1 0 .5Zm-4.4 6.1c0 .6.9 1.7 1.9 2.3.7.5.6.2-.1-.3a5.7 5.7 0 0 1-1.3-1.3c-.3-.5-.5-.8-.5-.6Zm39.9 8.2-.3.4.3-.3.3-.4-.3.3Zm-41.4-4.1c-1 .3-1.6.9-2 1.7-.5 1-.4 1.4.2.4.5-1 1.2-1.5 2.4-2 .8-.3.9-.4.5-.4l-1.1.3Zm2 1.6c-1.3.3-2.1 1-3 2.8l-.3.6.7-.4c.7-.3.8-.4 1.1-.1.4.2.4.2-.1.2l-1 .2c-.2.2-.2.2.7.2l2 .1c1.5 0 1.9-.2 2.6-1.6l.5-1v.7c-.2 1-.6 1.8-1.3 2.2-.6.3-.8.3-1.9.3-1.2-.1-1.2 0-.6.1a4.5 4.5 0 0 0 1.3.2c1.6 0 2.5-.9 2.9-3.1 0-.5.2-.6.5-.7.4-.2.4-.2 0-.2-.2 0-.3 0-.2-.3 0-.3 0-.3-.3-.1-.3.2-4.4 1.2-4.9 1.2-.2 0 .4-.6 1-.8a4 4 0 0 1 1.8-.3L27 34a8 8 0 0 0-2.7 0Zm.5 1.6c.2.3.1.6-.2.6l-.4-.3c-.2-.2-.2-.2 0-.3.3-.2.4-.2.6 0Zm2 .3-.3.4c-.2.3-.2.3 0-.2.1-.4.2-.5.2-.2ZM40.2 34c.3.6 3.3 2.9 3.8 2.9l-.7-.6a20.5 20.5 0 0 1-1.7-1.3l-1.2-1c-.4-.3-.4-.3-.2 0ZM16 35.8l-.2 1.7.1-.3c.2-.4.2-1.1.2-1.7v-1Zm38.8.2a15 15 0 0 1 5.9 9.8V47l.2-1c.4-3-.7-6-3-8.4a7.6 7.6 0 0 0-2.2-1.6c-1.3-.6-1.5-.6-.9-.1Zm-2.2 3.7a8.8 8.8 0 0 1 1.8 3l.2.7v-.6a6 6 0 0 0-2.2-3.6c-.5-.3-.4-.2.2.5Zm-26.1 2.5-1.4.1h-.7c.4.3 2 .2 2.6 0 .6-.3.2-.3-.5 0Zm-12.4 2c-.7.1-1 .5-.9.9.1.2.3.2 1.5-.8.5-.4.4-.4-.6-.2Zm.7 1.1c-.4.4-.5.6-.5 1.1 0 1.3 1 2.2 1.8 1.7a3 3 0 0 0 1.1-2c0-1.2-1.5-1.7-2.4-.8Zm43 13.7a14.6 14.6 0 0 0-2.5 5.3l.5-1a17.6 17.6 0 0 1 2.1-4.2l.6-1-.7.9Zm0 0" fill="#e6e6e6"/></svg>