<?xml version="1.0" encoding="UTF-8"?>
<svg xmlns="http://www.w3.org/2000/svg" xmlns:xlink="http://www.w3.org/1999/xlink" width="80px" height="80px" viewBox="0 0 80 80" version="1.1">
    <g id="surface1">
        <rect x="0" y="0" width="80" height="80" style="fill:rgb(100%,94.901961%,0%);fill-opacity:1;stroke:none;"/>
        <path style="fill-rule:nonzero;fill:rgb(100%,0%,0%);fill-opacity:1;stroke-width:10;stroke-linecap:butt;stroke-linejoin:miter;stroke:rgb(0%,0%,0%);stroke-opacity:1;stroke-miterlimit:4;" d="M 200 50 C 100 50 50 150 50 250 C 50 350 150 350 200 350 C 250 350 350 350 350 250 C 350 150 300 50 200 50 Z M 200 50 " transform="matrix(0.2,0,0,0.2,0,0)"/>
        <path style=" stroke:none;fill-rule:nonzero;fill:rgb(0%,0%,0%);fill-opacity:1;" d="M 36 30 C 36 33.3125 33.3125 36 30 36 C 26.6875 36 24 33.3125 24 30 C 24 26.6875 26.6875 24 30 24 C 33.3125 24 36 26.6875 36 30 Z M 36 30 "/>
        <path style=" stroke:none;fill-rule:nonzero;fill:rgb(0%,0%,0%);fill-opacity:1;" d="M 56 30 C 56 33.3125 53.3125 36 50 36 C 46.6875 36 44 33.3125 44 30 C 44 26.6875 46.6875 24 50 24 C 53.3125 24 56 26.6875 56 30 Z M 56 30 "/>
        <path style="fill:none;stroke-width:10;stroke-linecap:butt;stroke-linejoin:miter;stroke:rgb(0%,0%,0%);stroke-opacity:1;stroke-miterlimit:4;" d="M 150 250 C 150 300 250 300 250 250 " transform="matrix(0.2,0,0,0.2,0,0)"/>
        <path style="fill-rule:nonzero;fill:rgb(0%,0%,0%);fill-opacity:1;stroke-width:10;stroke-linecap:butt;stroke-linejoin:miter;stroke:rgb(0%,0%,0%);stroke-opacity:1;stroke-miterlimit:4;" d="M 100 100 L 120 80 M 280 100 L 300 80 " transform="matrix(0.2,0,0,0.2,0,0)"/>
        <path style="fill-rule:nonzero;fill:rgb(100%,0%,100%);fill-opacity:1;stroke-width:10;stroke-linecap:butt;stroke-linejoin:miter;stroke:rgb(0%,0%,0%);stroke-opacity:1;stroke-miterlimit:4;" d="M 50 200 C 0 150 0 250 50 200 M 350 200 C 400 150 400 250 350 200 " transform="matrix(0.2,0,0,0.2,0,0)"/>
    </g>
</svg>
